<svg width="1500" height="1500" xmlns="http://www.w3.org/2000/svg" version="1.1"><g transform="translate(750, 750)"><g display="none"><path d="M3.2473352108831006e-14,-530.3300858899107A530.3300858899107,530.3300858899107,0,1,1,-3.2473352108831006e-14,530.3300858899107A530.3300858899107,530.3300858899107,0,1,1,3.2473352108831006e-14,-530.3300858899107Z" style="stroke: rgb(255, 255, 255); fill: rgb(191, 105, 105); fill-rule: evenodd;"></path><text transform="translate(1.6236676054415503e-14,265.16504294495536)rotate(90)" text-anchor="middle" dx="6" dy=".35em" style="font-size: 11px; font-family: Arial, Helvetica;"></text><title>undefined: none</title></g><g><path d="M4.5924254968025744e-14,-750A750,750,0,0,1,231.76274578121058,-713.2923872213652L163.88100916830794,-504.37388397296803A530.3300858899107,530.3300858899107,0,0,0,3.2473352108831006e-14,-530.3300858899107Z" style="stroke: rgb(255, 255, 255); fill: rgb(191, 105, 105); fill-rule: evenodd;"></path><text transform="translate(100.14387603055054,-632.283548973318)rotate(-81)" text-anchor="middle" dx="6" dy=".35em" style="font-size: 11px; font-family: Arial, Helvetica;">BS by Roommate,  10/4</text><title> 10/4: 1</title></g><g><path d="M231.76274578121058,-713.2923872213652A750,750,0,0,1,713.2923872213652,231.76274578121055L504.37388397296803,163.8810091683079A530.3300858899107,530.3300858899107,0,0,0,163.88100916830794,-504.37388397296803Z" style="stroke: rgb(255, 255, 255); fill: rgb(105, 191, 105); fill-rule: evenodd;"></path><text transform="translate(570.3912298212819,-290.62884776236865)rotate(-27)" text-anchor="middle" dx="6" dy=".35em" style="font-size: 11px; font-family: Arial, Helvetica;">Bullshit witnessed Online,  10/8</text><title> 10/8: 5</title></g><g><path d="M713.2923872213652,231.76274578121055A750,750,0,0,1,440.83893921935487,606.7627457812106L311.7202033330901,429.0460521132633A530.3300858899107,530.3300858899107,0,0,0,504.37388397296803,163.8810091683079Z" style="stroke: rgb(255, 255, 255); fill: rgb(105, 191, 105); fill-rule: evenodd;"></path><text transform="translate(517.9043989472369,376.27957127622244)rotate(36)" text-anchor="middle" dx="6" dy=".35em" style="font-size: 11px; font-family: Arial, Helvetica;">Bullshit witnessed Online,  10/7</text><title> 10/7: 2</title></g><g><path d="M440.83893921935487,606.7627457812106A750,750,0,0,1,-606.7627457812105,440.8389392193549L-429.0460521132632,311.7202033330902A530.3300858899107,530.3300858899107,0,0,0,311.7202033330901,429.0460521132633Z" style="stroke: rgb(255, 255, 255); fill: rgb(105, 191, 105); fill-rule: evenodd;"></path><text transform="translate(-100.14387603055047,632.283548973318)rotate(279)" text-anchor="middle" dx="6" dy=".35em" style="font-size: 11px; font-family: Arial, Helvetica;">Bullshit witnessed Online,  10/9</text><title> 10/9: 5</title></g><g><path d="M-606.7627457812105,440.8389392193549A750,750,0,0,1,-713.2923872213652,231.76274578121064L-504.37388397296803,163.88100916830797A530.3300858899107,530.3300858899107,0,0,0,-429.0460521132632,311.7202033330902Z" style="stroke: rgb(255, 255, 255); fill: rgb(105, 105, 191); fill-rule: evenodd;"></path><text transform="translate(-570.3912298212819,290.6288477623687)rotate(333)" text-anchor="middle" dx="6" dy=".35em" style="font-size: 11px; font-family: Arial, Helvetica;">Bullshit created by Me,  10/1</text><title> 10/1: 1</title></g><g><path d="M-713.2923872213652,231.76274578121064A750,750,0,0,1,-713.2923872213653,-231.76274578121047L-504.3738839729681,-163.88100916830786A530.3300858899107,530.3300858899107,0,0,0,-504.37388397296803,163.88100916830797Z" style="stroke: rgb(255, 255, 255); fill: rgb(105, 105, 191); fill-rule: evenodd;"></path><text transform="translate(-640.1650429449553,7.839760707685674e-14)rotate(360)" text-anchor="middle" dx="6" dy=".35em" style="font-size: 11px; font-family: Arial, Helvetica;">Bullshit created by Me,  10/5</text><title> 10/5: 2</title></g><g><path d="M-713.2923872213653,-231.76274578121047A750,750,0,0,1,-231.76274578121067,-713.2923872213652L-163.881009168308,-504.37388397296803A530.3300858899107,530.3300858899107,0,0,0,-504.3738839729681,-163.88100916830786Z" style="stroke: rgb(255, 255, 255); fill: rgb(105, 191, 105); fill-rule: evenodd;"></path><text transform="translate(-452.6650429449554,-452.66504294495525)rotate(405)" text-anchor="middle" dx="6" dy=".35em" style="font-size: 11px; font-family: Arial, Helvetica;">Bullshit witnessed Online,  10/6</text><title> 10/6: 3</title></g><g><path d="M-231.76274578121067,-713.2923872213652A750,750,0,0,1,-1.3777276490407722e-13,-750L-9.7420056326493e-14,-530.3300858899107A530.3300858899107,530.3300858899107,0,0,0,-163.881009168308,-504.37388397296803Z" style="stroke: rgb(255, 255, 255); fill: rgb(105, 191, 105); fill-rule: evenodd;"></path><text transform="translate(-100.14387603055062,-632.2835489733179)rotate(441.00000000000006)" text-anchor="middle" dx="6" dy=".35em" style="font-size: 11px; font-family: Arial, Helvetica;">Bullshit witnessed Online,  10/10</text><title> 10/10: 1</title></g></g></svg>